<mxfile host="app.diagrams.net" agent="Mozilla/5.0 (Windows NT 10.0; Win64; x64) AppleWebKit/537.36 (KHTML, like Gecko) Chrome/134.0.0.0 Safari/537.36 Edg/134.0.0.0" version="26.1.1">
  <diagram name="第 1 页" id="y8iRc_hnr8QdAHlHdXpc">
    <mxGraphModel dx="1426" dy="781" grid="1" gridSize="10" guides="1" tooltips="1" connect="1" arrows="1" fold="1" page="1" pageScale="1" pageWidth="827" pageHeight="1169" math="0" shadow="0">
      <root>
        <mxCell id="0" />
        <mxCell id="1" parent="0" />
        <mxCell id="xBQ5lWTiT3AFR272K-I_-1" value="房东" style="shape=umlActor;verticalLabelPosition=bottom;verticalAlign=top;html=1;outlineConnect=0;" vertex="1" parent="1">
          <mxGeometry x="20" y="410" width="30" height="60" as="geometry" />
        </mxCell>
        <mxCell id="xBQ5lWTiT3AFR272K-I_-2" value="" style="endArrow=classic;html=1;rounded=0;dashed=1;entryX=0.05;entryY=0.688;entryDx=0;entryDy=0;entryPerimeter=0;exitX=1;exitY=0;exitDx=0;exitDy=0;" edge="1" parent="1" source="xBQ5lWTiT3AFR272K-I_-17" target="xBQ5lWTiT3AFR272K-I_-3">
          <mxGeometry width="50" height="50" relative="1" as="geometry">
            <mxPoint x="270" y="240" as="sourcePoint" />
            <mxPoint x="160" y="260" as="targetPoint" />
          </mxGeometry>
        </mxCell>
        <mxCell id="xBQ5lWTiT3AFR272K-I_-4" value="include" style="edgeLabel;html=1;align=center;verticalAlign=middle;resizable=0;points=[];" vertex="1" connectable="0" parent="xBQ5lWTiT3AFR272K-I_-2">
          <mxGeometry x="-0.08" y="-3" relative="1" as="geometry">
            <mxPoint as="offset" />
          </mxGeometry>
        </mxCell>
        <mxCell id="xBQ5lWTiT3AFR272K-I_-3" value="创建房源" style="ellipse;whiteSpace=wrap;html=1;" vertex="1" parent="1">
          <mxGeometry x="523.9200000000001" y="80" width="120" height="80" as="geometry" />
        </mxCell>
        <mxCell id="xBQ5lWTiT3AFR272K-I_-5" value="" style="endArrow=classic;html=1;rounded=0;dashed=1;entryX=0;entryY=0.5;entryDx=0;entryDy=0;exitX=0.942;exitY=0.338;exitDx=0;exitDy=0;exitPerimeter=0;" edge="1" parent="1" source="xBQ5lWTiT3AFR272K-I_-17" target="xBQ5lWTiT3AFR272K-I_-7">
          <mxGeometry width="50" height="50" relative="1" as="geometry">
            <mxPoint x="290" y="290" as="sourcePoint" />
            <mxPoint x="180" y="340" as="targetPoint" />
          </mxGeometry>
        </mxCell>
        <mxCell id="xBQ5lWTiT3AFR272K-I_-6" value="include" style="edgeLabel;html=1;align=center;verticalAlign=middle;resizable=0;points=[];" vertex="1" connectable="0" parent="xBQ5lWTiT3AFR272K-I_-5">
          <mxGeometry x="-0.08" y="-3" relative="1" as="geometry">
            <mxPoint as="offset" />
          </mxGeometry>
        </mxCell>
        <mxCell id="xBQ5lWTiT3AFR272K-I_-7" value="编辑房源" style="ellipse;whiteSpace=wrap;html=1;" vertex="1" parent="1">
          <mxGeometry x="593.9200000000001" y="160" width="120" height="80" as="geometry" />
        </mxCell>
        <mxCell id="xBQ5lWTiT3AFR272K-I_-11" value="" style="endArrow=classic;html=1;rounded=0;dashed=1;entryX=0.05;entryY=0.388;entryDx=0;entryDy=0;entryPerimeter=0;exitX=1;exitY=0.5;exitDx=0;exitDy=0;" edge="1" parent="1" source="xBQ5lWTiT3AFR272K-I_-17" target="xBQ5lWTiT3AFR272K-I_-15">
          <mxGeometry width="50" height="50" relative="1" as="geometry">
            <mxPoint x="300" y="350" as="sourcePoint" />
            <mxPoint x="230" y="410" as="targetPoint" />
          </mxGeometry>
        </mxCell>
        <mxCell id="xBQ5lWTiT3AFR272K-I_-12" value="include" style="edgeLabel;html=1;align=center;verticalAlign=middle;resizable=0;points=[];" vertex="1" connectable="0" parent="xBQ5lWTiT3AFR272K-I_-11">
          <mxGeometry x="-0.08" y="-3" relative="1" as="geometry">
            <mxPoint as="offset" />
          </mxGeometry>
        </mxCell>
        <mxCell id="xBQ5lWTiT3AFR272K-I_-13" value="" style="endArrow=classic;html=1;rounded=0;dashed=1;entryX=0.025;entryY=0.363;entryDx=0;entryDy=0;entryPerimeter=0;exitX=0.975;exitY=0.775;exitDx=0;exitDy=0;exitPerimeter=0;" edge="1" parent="1" source="xBQ5lWTiT3AFR272K-I_-17" target="xBQ5lWTiT3AFR272K-I_-16">
          <mxGeometry width="50" height="50" relative="1" as="geometry">
            <mxPoint x="320" y="380" as="sourcePoint" />
            <mxPoint x="170" y="500" as="targetPoint" />
          </mxGeometry>
        </mxCell>
        <mxCell id="xBQ5lWTiT3AFR272K-I_-14" value="include" style="edgeLabel;html=1;align=center;verticalAlign=middle;resizable=0;points=[];" vertex="1" connectable="0" parent="xBQ5lWTiT3AFR272K-I_-13">
          <mxGeometry x="-0.08" y="-3" relative="1" as="geometry">
            <mxPoint as="offset" />
          </mxGeometry>
        </mxCell>
        <mxCell id="xBQ5lWTiT3AFR272K-I_-15" value="修改房源" style="ellipse;whiteSpace=wrap;html=1;" vertex="1" parent="1">
          <mxGeometry x="593.9200000000001" y="260" width="120" height="80" as="geometry" />
        </mxCell>
        <mxCell id="xBQ5lWTiT3AFR272K-I_-16" value="删除房源" style="ellipse;whiteSpace=wrap;html=1;" vertex="1" parent="1">
          <mxGeometry x="533.9200000000001" y="350" width="120" height="80" as="geometry" />
        </mxCell>
        <mxCell id="xBQ5lWTiT3AFR272K-I_-25" style="edgeStyle=orthogonalEdgeStyle;rounded=0;orthogonalLoop=1;jettySize=auto;html=1;exitX=0.5;exitY=1;exitDx=0;exitDy=0;" edge="1" parent="1" source="xBQ5lWTiT3AFR272K-I_-17">
          <mxGeometry relative="1" as="geometry">
            <mxPoint x="180" y="530" as="targetPoint" />
          </mxGeometry>
        </mxCell>
        <mxCell id="xBQ5lWTiT3AFR272K-I_-27" value="extend" style="edgeLabel;html=1;align=center;verticalAlign=middle;resizable=0;points=[];" vertex="1" connectable="0" parent="xBQ5lWTiT3AFR272K-I_-25">
          <mxGeometry x="-0.1437" relative="1" as="geometry">
            <mxPoint as="offset" />
          </mxGeometry>
        </mxCell>
        <mxCell id="xBQ5lWTiT3AFR272K-I_-17" value="房源操作" style="ellipse;whiteSpace=wrap;html=1;" vertex="1" parent="1">
          <mxGeometry x="120" y="280" width="120" height="80" as="geometry" />
        </mxCell>
        <mxCell id="xBQ5lWTiT3AFR272K-I_-19" value="" style="endArrow=classic;html=1;rounded=0;entryX=0.025;entryY=0.663;entryDx=0;entryDy=0;entryPerimeter=0;" edge="1" parent="1" target="xBQ5lWTiT3AFR272K-I_-17">
          <mxGeometry width="50" height="50" relative="1" as="geometry">
            <mxPoint x="50" y="410" as="sourcePoint" />
            <mxPoint x="100" y="360" as="targetPoint" />
          </mxGeometry>
        </mxCell>
        <mxCell id="xBQ5lWTiT3AFR272K-I_-31" style="edgeStyle=orthogonalEdgeStyle;rounded=0;orthogonalLoop=1;jettySize=auto;html=1;exitX=1;exitY=0.5;exitDx=0;exitDy=0;entryX=0;entryY=0.5;entryDx=0;entryDy=0;" edge="1" parent="1" source="xBQ5lWTiT3AFR272K-I_-26" target="xBQ5lWTiT3AFR272K-I_-29">
          <mxGeometry relative="1" as="geometry" />
        </mxCell>
        <mxCell id="xBQ5lWTiT3AFR272K-I_-26" value="房源标签" style="ellipse;whiteSpace=wrap;html=1;" vertex="1" parent="1">
          <mxGeometry x="120" y="530" width="120" height="80" as="geometry" />
        </mxCell>
        <mxCell id="xBQ5lWTiT3AFR272K-I_-29" value="标签分类创建" style="ellipse;whiteSpace=wrap;html=1;" vertex="1" parent="1">
          <mxGeometry x="390" y="440" width="120" height="80" as="geometry" />
        </mxCell>
        <mxCell id="xBQ5lWTiT3AFR272K-I_-32" style="edgeStyle=orthogonalEdgeStyle;rounded=0;orthogonalLoop=1;jettySize=auto;html=1;exitX=1;exitY=1;exitDx=0;exitDy=0;entryX=0;entryY=0.5;entryDx=0;entryDy=0;" edge="1" parent="1" target="xBQ5lWTiT3AFR272K-I_-33" source="xBQ5lWTiT3AFR272K-I_-26">
          <mxGeometry relative="1" as="geometry">
            <mxPoint x="230" y="700" as="sourcePoint" />
          </mxGeometry>
        </mxCell>
        <mxCell id="xBQ5lWTiT3AFR272K-I_-33" value="标签分类修改" style="ellipse;whiteSpace=wrap;html=1;" vertex="1" parent="1">
          <mxGeometry x="440" y="660" width="120" height="80" as="geometry" />
        </mxCell>
        <mxCell id="xBQ5lWTiT3AFR272K-I_-34" style="edgeStyle=orthogonalEdgeStyle;rounded=0;orthogonalLoop=1;jettySize=auto;html=1;exitX=0.5;exitY=1;exitDx=0;exitDy=0;entryX=0;entryY=0.5;entryDx=0;entryDy=0;" edge="1" parent="1" target="xBQ5lWTiT3AFR272K-I_-35" source="xBQ5lWTiT3AFR272K-I_-26">
          <mxGeometry relative="1" as="geometry">
            <mxPoint x="240" y="850" as="sourcePoint" />
          </mxGeometry>
        </mxCell>
        <mxCell id="xBQ5lWTiT3AFR272K-I_-35" value="标签分类删除" style="ellipse;whiteSpace=wrap;html=1;" vertex="1" parent="1">
          <mxGeometry x="450" y="810" width="120" height="80" as="geometry" />
        </mxCell>
        <mxCell id="xBQ5lWTiT3AFR272K-I_-36" style="edgeStyle=orthogonalEdgeStyle;rounded=0;orthogonalLoop=1;jettySize=auto;html=1;entryX=0;entryY=0.5;entryDx=0;entryDy=0;" edge="1" parent="1" target="xBQ5lWTiT3AFR272K-I_-37">
          <mxGeometry relative="1" as="geometry">
            <mxPoint x="240" y="580" as="sourcePoint" />
          </mxGeometry>
        </mxCell>
        <mxCell id="xBQ5lWTiT3AFR272K-I_-37" value="标签分类编辑" style="ellipse;whiteSpace=wrap;html=1;" vertex="1" parent="1">
          <mxGeometry x="510" y="540" width="120" height="80" as="geometry" />
        </mxCell>
      </root>
    </mxGraphModel>
  </diagram>
</mxfile>
